<svg xmlns="http://www.w3.org/2000/svg" viewBox="0 0 1185.71 589.6"><defs><style>.cls-1{fill:#fff;}</style></defs><g id="Layer_2" data-name="Layer 2"><g id="Layer_1-2" data-name="Layer 1"><polygon class="cls-1" points="674 153.69 674 0 442.32 245.94 277.81 71.32 257.66 172.25 373.09 294.8 277.81 395.96 277.81 518.3 442.32 343.66 674 589.6 716.83 481.4 541.04 294.8 674 153.69"/><polygon class="cls-1" points="930.42 0.02 716.83 124.21 769.85 375.25 883.01 157.75 1054.89 321.69 938.11 428.81 850.86 321.69 769.85 518.3 883.44 589.6 1185.71 321.69 930.42 0.02"/><polygon class="cls-1" points="196.69 157.75 41.97 157.75 0 367.86 37.95 367.86 77.7 367.86 0 589.6 211.43 262.81 175.72 262.81 196.69 157.75"/><polygon class="cls-1" points="202.28 0 90.61 0 67.86 113.88 179.56 113.88 202.28 0"/></g></g></svg>
